<svg xmlns="http://www.w3.org/2000/svg" viewBox="0 0 34.26 34.24"><defs><style>.cls-1{fill:#fff;}</style></defs><g id="Layer_2" data-name="Layer 2"><g id="Graphic_Elements" data-name="Graphic Elements"><path class="cls-1" d="M33.39,13.49c-2.41-.21-4.8-.43-7.2-.76l-3.53-.47A13.79,13.79,0,0,1,20.24,12h0a2.76,2.76,0,0,1-.07-.49,8.85,8.85,0,0,0-.17-1,29.73,29.73,0,0,0-1.17-3A18.18,18.18,0,0,1,17.22.84.86.86,0,0,0,15.53.61a18.12,18.12,0,0,1-.95,3.33,23.59,23.59,0,0,0-1.09,2.9,26.43,26.43,0,0,1-1.16,3.27,14.91,14.91,0,0,0-1.08,2.54c-.77.2-1.53.53-2.28.78-1.2.39-2.35.94-3.53,1.39-1.71.63-3.76.87-5.19,2.05a.87.87,0,0,0,.18,1.35A8.93,8.93,0,0,0,2.58,19c1,.36,2,.82,3,1.21.83.33,1.68.61,2.49,1a4,4,0,0,1,1.12.53c.19.21.09.43,0,.78-.32,1.74-.49,3.5-.8,5.24-.19,1.06-.32,2.13-.58,3.16a11.35,11.35,0,0,0-.52,2.5A.86.86,0,0,0,8.77,34c.73-.69,1.29-1.53,2-2.24s1.38-1.19,2.09-1.76a49.39,49.39,0,0,1,4.66-3.34c.63.38,1.29.71,1.89,1.15.83.59,1.59,1.27,2.41,1.87s1.7,1.14,2.52,1.75,1.34,1.16,2.06,1.67h0l.17.13c.86.58,1.63-.64,1-1.34A13.11,13.11,0,0,1,26,28.83a21.8,21.8,0,0,1-1.15-3.65,16.89,16.89,0,0,0-1.07-3.34,4.36,4.36,0,0,0-.24-.41,11.52,11.52,0,0,0,1.1-.45,26.39,26.39,0,0,0,5.81-3.22c1.33-.91,3.26-1.53,3.82-3.19A.86.86,0,0,0,33.39,13.49Zm-6,4.27A17.8,17.8,0,0,1,24,19.39c-.71.27-1.77.46-2.2,1.16s0,1.33.39,2a17.27,17.27,0,0,1,1.19,3.88,29.2,29.2,0,0,0,.94,2.93c-.53-.37-1.07-.73-1.59-1.12-.77-.57-1.5-1.2-2.27-1.77s-1.69-1-2.5-1.51a.81.81,0,0,0-.86,0A50.57,50.57,0,0,0,12,28.55c-.77.61-1.55,1.22-2.27,1.89l0,0s0,0,0,0c.23-1.22.43-2.45.66-3.67s.26-2.2.43-3.3a8.73,8.73,0,0,0,.29-1.9c-.1-1.49-2.54-2.07-3.66-2.49s-2.14-.85-3.2-1.28a10.94,10.94,0,0,0-1.26-.4l.78-.22c.87-.25,1.72-.54,2.56-.87,1-.38,2-.83,3-1.19A15.59,15.59,0,0,1,12,14.21a.85.85,0,0,0,.67-.45.6.6,0,0,0,.06-.11s0-.07,0-.11a.45.45,0,0,0,.06-.14A14.6,14.6,0,0,1,14,10.47,29.76,29.76,0,0,0,15.14,7.3a22.12,22.12,0,0,1,1-2.54,34.17,34.17,0,0,0,1.14,3.32,17.39,17.39,0,0,1,1.2,3.25c.12.72,0,1.56.71,2a4.33,4.33,0,0,0,2.22.45c1.2.1,2.39.3,3.58.46q3.36.44,6.72.75c-.4.24-.85.43-1.18.62C29.42,16.3,28.43,17.09,27.38,17.76Z"/></g></g></svg>