<svg xmlns="http://www.w3.org/2000/svg" viewBox="0 0 36.24 36.24"><defs><style>.cls-1{fill:#fff;}</style></defs><g id="Layer_2" data-name="Layer 2"><g id="Graphic_Elements" data-name="Graphic Elements"><path class="cls-1" d="M36.24,19.58l-.06-.85a3.61,3.61,0,0,0-1-.67c-4.5-1.08-9-2.18-13.53-3.14-.11-1.93-.44-3.86-.7-5.78C20.56,6.09,20.12,3,19.69,0l-.85.06c-.23.33-.58.62-.67,1C17.08,5.62,16,10.19,15,14.78c-2.1.34-4.17.86-6.23,1.36-2.93.71-5.84,1.47-8.76,2.21a3.62,3.62,0,0,0,2.37,1.08c3.92.58,7.84,1.21,11.77,1.72l.75.09c.34,2.1.86,4.17,1.36,6.24.71,2.93,1.47,5.84,2.21,8.76a3.64,3.64,0,0,0,1.08-2.38c.58-3.92,1.21-7.83,1.72-11.76l.06-.56c1.93-.11,3.86-.43,5.78-.69C30.15,20.45,33.19,20,36.24,19.58Z"/></g></g></svg>