<svg xmlns="http://www.w3.org/2000/svg" viewBox="0 0 39.85 39.85"><defs><style>.cls-1{fill:#fff;}</style></defs><g id="Layer_2" data-name="Layer 2"><g id="Graphic_Elements" data-name="Graphic Elements"><path class="cls-1" d="M23.51,16.54c0-.12,0-.24,0-.36-.58-3.63-1.3-7.24-1.93-10.86C21.25,3.55,21,1.77,20.73,0a147.91,147.91,0,0,0-4.31,16.89Q9.07,18,1.73,19.25A7.53,7.53,0,0,0,0,20v.65c1.29.24,2.57.54,3.86.71q6.48.87,13,1.68Q18,30.6,19.25,38.12A7.73,7.73,0,0,0,20,39.85h.65c.24-1.28.54-2.56.71-3.85.56-4.15,1.09-8.31,1.62-12.46.22,0,.46,0,.68,0,3.63-.58,7.24-1.3,10.86-1.93,1.77-.31,3.54-.56,5.32-.83A144.71,144.71,0,0,0,23.51,16.54Z"/></g></g></svg>