<svg xmlns="http://www.w3.org/2000/svg" viewBox="0 0 36.74 70.24"><defs><style>.cls-1{fill:#fff;}</style></defs><g id="Layer_2" data-name="Layer 2"><g id="Graphic_Elements" data-name="Graphic Elements"><path class="cls-1" d="M0,37.1C10.82,31.37,13.3,26.45,18.57,0a44.18,44.18,0,0,1,1.7,5.11c.75,4.31,1,8.73,2.13,13,2.44,8.84,4.08,10.18,14.34,13.34-1.35,1.16-2.41,2.14-3.54,3.05-6.22,5-8.65,11.48-8.77,18.72-.09,5.59,0,11.19-1.62,17.07A14.9,14.9,0,0,1,21,66.68c-1-4.55-1.22-9.25-2.64-13.67-2.15-6.68-6-12.35-14.72-13.8C2.37,39,1.31,37.89,0,37.1ZM18.41,19.46,8.56,35.74,20.91,47.65c2.61-4.92,5.18-9.73,7.39-13.88Z"/></g></g></svg>