<svg xmlns="http://www.w3.org/2000/svg" viewBox="0 0 44.77 69.02"><defs><style>.cls-1{fill:#fff;}</style></defs><g id="Layer_2" data-name="Layer 2"><g id="Graphic_Elements" data-name="Graphic Elements"><path class="cls-1" d="M44.77,34.52C33.82,44.36,29.67,56,27.29,69a29.84,29.84,0,0,1-2.22-3.8c-1.27-3.2-2.32-6.48-3.5-9.71-2.83-7.72-7.48-13.34-16.22-14.57A12,12,0,0,1,0,38.21c5,.29,9.9.27,12.88-4.14,2.7-4,5.52-8.16,6.92-12.68C21.71,15.18,22.34,8.57,23.9,0c1.4,3.16,2.22,4.36,2.46,5.68.69,3.93.85,8,1.75,11.86C30,25.8,33.91,32.56,44.77,34.52ZM24.14,20.11c-3,5.66-6.59,12.3-9.74,18.16L26.62,55.64l9.51-17.78C31.84,31.5,27.91,25.68,24.14,20.11Z"/></g></g></svg>