<svg xmlns="http://www.w3.org/2000/svg" viewBox="0 0 29.27 62.12"><defs><style>.cls-1{fill:#fff;}</style></defs><g id="Layer_2" data-name="Layer 2"><g id="Graphic_Elements" data-name="Graphic Elements"><path class="cls-1" d="M15.84,0c.73,6.35,1.41,12.72,2.2,19.06a16.62,16.62,0,0,0,1.12,4c1.31,3.32,3.32,5.74,7.38,5.41a13,13,0,0,1,2.73.56c-9.36,9.38-10.08,21.55-12.67,33l-1,0c-.15-1.41-.27-2.82-.45-4.23C14.45,52.7,14,47.49,13,42.38a11.94,11.94,0,0,0-9-9.83c-1-.27-1.87-.71-4-1.55,10.16-1.32,12.89-7.87,14-15.45.75-5.13.84-10.36,1.22-15.55Zm.8,48.71c2.53-6.38,4.78-12.07,7.09-17.93-5.69-1.56-6.37-6.89-8.37-11.89C13.71,24.16,11.54,28.41,7,31.21,13.87,34.85,15.26,41.32,16.64,48.75Z"/></g></g></svg>