<svg xmlns="http://www.w3.org/2000/svg" viewBox="0 0 30.4 66.75"><defs><style>.cls-1{fill:#fff;}</style></defs><g id="Layer_2" data-name="Layer 2"><g id="Graphic_Elements" data-name="Graphic Elements"><path class="cls-1" d="M0,31.46c7.87-.79,10.58-2.78,12.16-9.61,1.42-6.11,2.16-12.38,3.21-18.57.19-1.1.43-2.19.65-3.28l1,0c.38,3.84.79,7.67,1.14,11.51.18,2.09.26,4.19.39,6.29a12.14,12.14,0,0,0,8.06,11.23c1.11.45,2.23.86,3.75,1.44-1,1.09-1.7,2-2.53,2.8a23.54,23.54,0,0,0-7.61,17.79c0,5.18-.38,10.35-.59,15.53l-1.1.13a9.71,9.71,0,0,1-1-2.51,84.61,84.61,0,0,0-5.41-22.88c-1.91-5-5.25-7.51-10-8.86A17.51,17.51,0,0,1,0,31.46ZM15.93,15.68c-1.55,6.4-2.7,12.59-8.79,16.72,7.69,3.73,6.9,11.81,11.11,17.87.2-7.76,3.35-13.47,8.46-18.92C18.87,28.74,16.84,22.62,15.93,15.68Z"/></g></g></svg>