<svg xmlns="http://www.w3.org/2000/svg" viewBox="0 0 32.58 31.97"><defs><style>.cls-1{fill:#fff;}</style></defs><g id="Layer_2" data-name="Layer 2"><g id="Graphic_Elements" data-name="Graphic Elements"><path class="cls-1" d="M27.65,18.08a44.86,44.86,0,0,0,4.63-3.72,1,1,0,0,0-.2-1.61c-1.29-.94-3.17-.75-4.67-.74a20.26,20.26,0,0,1-4.8-.38c-1.93-.47-2.32-2.8-3-4.42C18.72,5,18,2.67,17,.5c-.36-.77-1.36-.55-1.77,0C12.8,3.76,12.31,7.86,11,11.61c-3.45.55-6.94.85-10.25,2a1,1,0,0,0-.25,1.88,35.87,35.87,0,0,0,5.06,2.67c.68.36,1.39.65,2.06,1,.28.15.79.7.87.5,0,.26,0,.57,0,.78a45.84,45.84,0,0,1-1.06,6.16c-.27,1.42-1.18,3.14-.78,4.57a1,1,0,0,0,1.51.62A33.69,33.69,0,0,0,12.52,28c.62-.54,1.2-1.11,1.84-1.63s1.1-1.08,1.89-.56a55.86,55.86,0,0,0,6,3.16c1.63.81,3.75,2.11,5.64,2a1,1,0,0,0,.89-1.55c-1-1.72-1.56-3.68-2.43-5.48A18.24,18.24,0,0,0,25,21.45c-.17-.24-.35-.45-.51-.69s-.13-.21-.19-.31C25.06,19.42,26.64,18.82,27.65,18.08ZM26.08,28.46l-.82-.35c-1.3-.58-2.56-1.25-3.84-1.88a37.33,37.33,0,0,1-3.36-1.65c-.73-.46-1.42-1.16-2.33-1.17-1.49,0-2.92,1.55-3.93,2.46-.66.6-1.37,1.16-2,1.79l-.67.67c0-.08.06-.16.07-.23.21-1.05.41-2.1.65-3.15.37-1.68,1-4,.65-5.73C10.15,17.79,8,17.16,6.9,16.58s-2.26-1-3.37-1.62c2.52-.62,5.11-.92,7.69-1.32A1.1,1.1,0,0,0,12.64,13c1.28-3.18,1.73-6.71,3.3-9.75.71,1.74,1.35,3.53,2,5.27s1.23,3.83,3,4.68c1.51.74,3.32.65,5,.78,1,.08,2.42-.13,3.62,0a34.93,34.93,0,0,1-4,3c-1.13.73-2.92,1.5-3.28,2.95s1.31,2.94,1.91,4.09C24.93,25.49,25.45,27,26.08,28.46Z"/></g></g></svg>