<svg xmlns="http://www.w3.org/2000/svg" viewBox="0 0 34.71 75.06"><defs><style>.cls-1{fill:#fff;}</style></defs><g id="Layer_2" data-name="Layer 2"><g id="Graphic_Elements" data-name="Graphic Elements"><path class="cls-1" d="M0,39.64C10.22,33.52,12.57,28.27,17.54,0a52.55,52.55,0,0,1,1.61,5.46c.71,4.61.91,9.33,2,13.83C23.47,28.74,25,30.18,34.71,33.55c-1.27,1.25-2.28,2.29-3.34,3.26-5.88,5.38-8.17,12.26-8.29,20-.09,6,0,12-1.53,18.25a17.09,17.09,0,0,1-1.74-3.81c-.91-4.86-1.15-9.89-2.49-14.61-2-7.14-5.64-13.2-13.91-14.75C2.24,41.67,1.24,40.49,0,39.64Z"/></g></g></svg>