<svg xmlns="http://www.w3.org/2000/svg" viewBox="0 0 47.77 73.63"><defs><style>.cls-1{fill:#fff;}</style></defs><g id="Layer_2" data-name="Layer 2"><g id="Graphic_Elements" data-name="Graphic Elements"><path class="cls-1" d="M0,36.8C11.68,26.31,16.11,13.94,18.65,0A30.76,30.76,0,0,1,21,4.05C22.37,7.46,23.5,11,24.76,14.41c3,8.23,8,14.23,17.3,15.54a12.75,12.75,0,0,1,5.71,2.91c-5.33-.31-10.56-.28-13.75,4.43-2.87,4.25-5.89,8.7-7.37,13.52-2,6.62-2.71,13.68-4.38,22.82-1.49-3.37-2.37-4.66-2.62-6.06-.74-4.2-.91-8.51-1.87-12.65C15.73,46.1,11.59,38.9,0,36.8Z"/></g></g></svg>