<svg xmlns="http://www.w3.org/2000/svg" viewBox="0 0 44.21 70.07"><defs><style>.cls-1{fill:#fff;}</style></defs><g id="Layer_2" data-name="Layer 2"><g id="Graphic_Elements" data-name="Graphic Elements"><path class="cls-1" d="M0,34.4c.6-.49.88-.92,1.2-.95,4.55-.35,9.06-.49,12.46-4.37,4-4.59,7.58-9.42,8.83-15.52.71-3.45,1.06-7,1.69-10.45A4.54,4.54,0,0,1,26.46,0c.36,3.44.49,6.92,1.12,10.3A133.93,133.93,0,0,0,31,24.74c1.36,4.43,4.6,6.77,9.45,6.57a22.53,22.53,0,0,1,3.79.62c-1.47,1.37-2.14,2.36-3.08,2.82-9.55,4.69-12.84,13-13.65,22.91-.33,4.08-.59,8.16-.89,12.24l-1.52.17c-.35-1.38-.74-2.75-1-4.15-1.24-5.87-2-11.9-3.8-17.59-2.22-7-7.09-11.56-14.72-12.65C3.74,35.42,2,34.87,0,34.4Z"/></g></g></svg>