<svg xmlns="http://www.w3.org/2000/svg" viewBox="0 0 35.46 32.03"><defs><style>.cls-1{fill:#fff;}</style></defs><g id="Layer_2" data-name="Layer 2"><g id="Graphic_Elements" data-name="Graphic Elements"><path class="cls-1" d="M20.75,9H35.2c.09.34.18.69.26,1A27.41,27.41,0,0,1,33,11.89c-1.4.85-2.9,1.53-4.3,2.38-6.93,4.2-7,4.56-5.27,12.57.36,1.61.48,3.27.71,4.91l-1,.28a35.62,35.62,0,0,0-2.65-3.75,43,43,0,0,0-3.52-3.19c-4.13.83-4.17,6.81-9.34,6.82C8.71,27,9.75,22.41,10.83,17.6L0,6.69C5.09,5.12,9,8.28,13.63,8.25,14.52,5.67,15.42,3,16.46,0,19.75,2.36,18.61,5.7,20.75,9Z"/></g></g></svg>