<svg xmlns="http://www.w3.org/2000/svg" viewBox="0 0 37.97 40.7"><defs><style>.cls-1{fill:#fff;}</style></defs><g id="Layer_2" data-name="Layer 2"><g id="Graphic_Elements" data-name="Graphic Elements"><path class="cls-1" d="M25.66,15.19,38,19.09c-1,2.83-3.62,2.36-5.25,3.46S29.39,24.78,27.55,26c1.13,4.83,2.22,9.54,3.43,14.69-3.66-.75-4.37-3.86-6.39-5.48s-4.28-3-6.88-4.84c-3,3-6,6.1-9.49,9.69a11.85,11.85,0,0,1-.11-2.71c.77-3,1.59-6.09,2.48-9.1.83-2.84.69-3.2-1.86-4.8C6,21.73,3.29,19.92,0,17.77c1.33-.45,2-.76,2.77-.93,3.18-.73,6.38-1.37,9.56-2.13,2.13-.5,3.33-2,4.14-4,1.26-3.14,2.77-6.19,4.2-9.26A9.77,9.77,0,0,1,21.9,0C24.16,5,24.18,10.07,25.66,15.19Z"/></g></g></svg>