<svg xmlns="http://www.w3.org/2000/svg" viewBox="0 0 39.85 39.85"><defs><style>.cls-1{fill:#fff;}</style></defs><g id="Layer_2" data-name="Layer 2"><g id="Graphic_Elements" data-name="Graphic Elements"><path class="cls-1" d="M16.54,16.34c-.12,0-.24,0-.36,0-3.63.57-7.24,1.29-10.86,1.93-1.77.31-3.55.55-5.32.83a145.79,145.79,0,0,0,16.89,4.3q1.16,7.36,2.36,14.7A7.73,7.73,0,0,0,20,39.85h.65c.24-1.28.54-2.56.71-3.85q.87-6.5,1.68-13,7.54-1.17,15.07-2.41a7.34,7.34,0,0,0,1.73-.77c0-.21,0-.43,0-.65-1.28-.24-2.56-.53-3.85-.7-4.15-.56-8.31-1.09-12.46-1.62,0-.23,0-.46,0-.68-.58-3.63-1.3-7.24-1.93-10.86C21.25,3.55,21,1.77,20.73,0A144.16,144.16,0,0,0,16.54,16.34Z"/></g></g></svg>