<svg xmlns="http://www.w3.org/2000/svg" viewBox="0 0 45 43.26"><defs><style>.cls-1{fill:#fff;}</style></defs><g id="Layer_2" data-name="Layer 2"><g id="Graphic_Elements" data-name="Graphic Elements"><path class="cls-1" d="M21.83,6.63c-1,3.79-2.21,7.55-3.19,11.36a7.7,7.7,0,0,0-.26,1.56A21.77,21.77,0,0,0,15.9,20a66.12,66.12,0,0,1-8.36.84c-2.52.25-5,.53-7.54.8A28.24,28.24,0,0,0,6.89,24c4,1,7.87,2.13,11.83,3.08a8.06,8.06,0,0,0,2.21.23c.61,2.67.9,5.41,1.34,8.12s.92,5.23,1.39,7.85l1,0a13.5,13.5,0,0,0,.44-2c.24-2.69.53-5.39.62-8.08s.44-5.27.68-7.9a86,86,0,0,1,10.41-1.78c2.72-.41,5.44-.88,8.16-1.33l0-1a18,18,0,0,0-2-.42c-2.8-.23-5.6-.5-8.41-.59-2.65-.09-5.3-.41-8-.63a22.13,22.13,0,0,0-.6-4.31c-.65-2.6-.59-5.35-.88-8-.26-2.42-.55-4.84-.83-7.25A26,26,0,0,0,21.83,6.63Z"/></g></g></svg>