<svg xmlns="http://www.w3.org/2000/svg" viewBox="0 0 41.03 42.68"><defs><style>.cls-1{fill:#fff;}</style></defs><g id="Layer_2" data-name="Layer 2"><g id="Graphic_Elements" data-name="Graphic Elements"><path class="cls-1" d="M34.75,20.71c-3.6-1-7.17-2.1-10.78-3a7.63,7.63,0,0,0-1.48-.24,21.54,21.54,0,0,0-.4-2.36,63.2,63.2,0,0,1-.8-7.93c-.24-2.39-.5-4.77-.76-7.15A27.37,27.37,0,0,0,18.3,6.54c-1,3.74-2,7.46-2.91,11.21a7.73,7.73,0,0,0-.22,2.1c-2.53.58-5.13.85-7.71,1.27S2.5,22,0,22.44c0,.32,0,.64,0,1a13.48,13.48,0,0,0,1.86.42c2.55.23,5.11.5,7.67.59s5,.41,7.49.64a81.35,81.35,0,0,1,1.68,9.87c.39,2.59.84,5.16,1.26,7.74l.93,0a14.38,14.38,0,0,0,.4-1.93c.22-2.66.48-5.31.57-8s.38-5,.59-7.55a20.65,20.65,0,0,0,4.09-.57,56.56,56.56,0,0,1,7.62-.83c2.29-.25,4.58-.53,6.87-.79A24.37,24.37,0,0,0,34.75,20.71Z"/></g></g></svg>