<svg xmlns="http://www.w3.org/2000/svg" viewBox="0 0 37.18 58.93"><defs><style>.cls-1{fill:#fff;}</style></defs><g id="Layer_2" data-name="Layer 2"><g id="Graphic_Elements" data-name="Graphic Elements"><path class="cls-1" d="M0,28.93c.5-.41.74-.77,1-.79,3.82-.3,7.62-.42,10.48-3.68,3.39-3.86,6.37-7.92,7.43-13,.59-2.91.89-5.88,1.42-8.8A3.79,3.79,0,0,1,22.26,0c.3,2.89.4,5.82.94,8.66A113.24,113.24,0,0,0,26.05,20.8c1.14,3.74,3.87,5.7,7.94,5.53a20.05,20.05,0,0,1,3.19.52,14.9,14.9,0,0,1-2.58,2.38c-8,3.94-10.81,11-11.48,19.27-.28,3.43-.51,6.86-.75,10.3l-1.28.13c-.29-1.16-.62-2.31-.87-3.48-1-4.94-1.67-10-3.19-14.8-1.87-5.87-6-9.73-12.39-10.64C3.14,29.79,1.67,29.33,0,28.93ZM20.63,12.08c-1.86,7.28-6.12,12.23-11.39,17.18,7.34,2.7,9.15,9,11.83,16,2-7,4.15-12.65,9.85-16.5C23.44,25.59,23.32,18.61,20.63,12.08Z"/></g></g></svg>