<svg xmlns="http://www.w3.org/2000/svg" viewBox="0 0 34.8 73.85"><defs><style>.cls-1{fill:#fff;}</style></defs><g id="Layer_2" data-name="Layer 2"><g id="Graphic_Elements" data-name="Graphic Elements"><path class="cls-1" d="M18.84,0c.86,7.56,1.67,15.12,2.61,22.67a19.83,19.83,0,0,0,1.33,4.76c1.55,4,3.95,6.83,8.77,6.44a14.84,14.84,0,0,1,3.25.67c-11.13,11.15-12,25.62-15.06,39.27l-1.24,0c-.18-1.68-.32-3.36-.54-5-.78-6.14-1.33-12.32-2.46-18.4A14.16,14.16,0,0,0,4.79,38.7c-1.14-.33-2.22-.85-4.79-1.85,12.08-1.56,15.32-9.36,16.63-18.36.89-6.1,1-12.32,1.46-18.49Z"/></g></g></svg>