<svg xmlns="http://www.w3.org/2000/svg" viewBox="0 0 36.15 79.36"><defs><style>.cls-1{fill:#fff;}</style></defs><g id="Layer_2" data-name="Layer 2"><g id="Graphic_Elements" data-name="Graphic Elements"><path class="cls-1" d="M0,37.41C9.36,36.46,12.58,34.1,14.46,26,16.14,18.71,17,11.26,18.28,3.9c.22-1.31.51-2.6.77-3.9l1.23,0c.45,4.56.94,9.11,1.35,13.68.23,2.48.31,5,.47,7.48q.62,9.66,9.59,13.35c1.31.53,2.64,1,4.46,1.71-1.17,1.3-2,2.38-3,3.33a28,28,0,0,0-9,21.15c0,6.16-.45,12.31-.7,18.47l-1.31.15a11.49,11.49,0,0,1-1.2-3,101.09,101.09,0,0,0-6.43-27.19c-2.28-5.91-6.24-8.94-11.91-10.54A20.15,20.15,0,0,1,0,37.41Z"/></g></g></svg>