<svg xmlns="http://www.w3.org/2000/svg" viewBox="0 0 32.52 29.63"><defs><style>.cls-1{fill:#fff;}</style></defs><g id="Layer_2" data-name="Layer 2"><g id="Graphic_Elements" data-name="Graphic Elements"><path class="cls-1" d="M32,10.23a6.38,6.38,0,0,0-2.51-.64l-2.76-.42c-2-.29-3.92-.57-5.89-.73a2.92,2.92,0,0,0-1,0H19.8v0a10.16,10.16,0,0,0-.34-1.93A34.23,34.23,0,0,1,18.7,1,1.1,1.1,0,0,0,17.23.07a1,1,0,0,0-1.16.71c-.22.62-.46,1.25-.7,1.86-.72.85-1.53,1.62-2.28,2.49a9.58,9.58,0,0,0-1.48,2c-.38.8-.09.89-.93.77C8.05,7.55,5.27,6.77,2.6,6.78c-.89,0-2,.14-2.44,1-.54,1.15.41,2.4,1.08,3.26a26,26,0,0,0,5.94,6.13c-.65,1.51-.63,3.44-1.18,4.93a28.65,28.65,0,0,1-1.45,3.43,6.78,6.78,0,0,0-1,2.95,1,1,0,0,0,1.55.88c1.83-1,3.67-2,5.4-3.22a19.18,19.18,0,0,1,3.6-2.31c1.51-.57,2.36,1.19,3.34,2.09l.17.14c.81.89,1.63,1.78,2.5,2.62a1,1,0,0,0,1.27.09l1.19.68a1,1,0,0,0,1.54-.89,22.87,22.87,0,0,0-.91-6.76,11.67,11.67,0,0,0-1.58-4,38.43,38.43,0,0,1,6-3.06c1.55-.75,4-1.46,4.79-3.15A1,1,0,0,0,32,10.23ZM21,21.82c0-.25-.06-.5-.1-.75.17.55.31,1.11.43,1.66A32.53,32.53,0,0,1,22,26.79l-.24-.16C21.61,25,21.19,23.39,21,21.82Z"/></g></g></svg>