<svg xmlns="http://www.w3.org/2000/svg" viewBox="0 0 36.33 36.97"><defs><style>.cls-1{fill:#fff;}</style></defs><g id="Layer_2" data-name="Layer 2"><g id="Graphic_Elements" data-name="Graphic Elements"><path class="cls-1" d="M31.71,37C27.87,32.85,24,28.72,20.48,24.89c-6.45,2-7,9.43-13.5,11,.58-5.82,4.3-9.77,6-15.31-2.73-1-5.39-2.12-8.14-2.89C2.44,17.05.23,16.47,0,12.8H15.92L21.19,0c3,1.73,3,4,3.49,6.11,1.69,7.51,1.71,7.5,9.38,7.26a8.7,8.7,0,0,1,2.27.69c-1.66,3.35-4.94,4.15-7.37,6.31,1.18,5.31,2.4,10.77,3.61,16.23Z"/></g></g></svg>