<svg xmlns="http://www.w3.org/2000/svg" viewBox="0 0 38.91 36.9"><defs><style>.cls-1{fill:#fff;}</style></defs><g id="Layer_2" data-name="Layer 2"><g id="Graphic_Elements" data-name="Graphic Elements"><path class="cls-1" d="M27.38,36.9l-7-9.72c-2.25,2.5-4,4.35-5.64,6.28C13.39,35,12.1,36.52,9.64,34.87c.53-2.34,1-4.72,1.61-7.09s1.15-4.43,1.84-7c-1.79-2.06-3.57-4.4-5.65-6.44S3.06,10.58,0,8c6.46-.95,11.2,2.16,16.78,1.81.94-3.21,1.91-6.53,2.87-9.84l1.23,0C21.37,2.49,22,4.92,22.3,7.39s1.59,3.93,4.05,4a59.76,59.76,0,0,0,7.33-.19c1.57-.14,3.14-1,5.23.73-1.15,1-2.1,1.95-3.14,2.76-2.45,1.92-4.9,3.83-7.41,5.66-2.28,1.68-2.78,3.86-2.18,6.5.54,2.39,1,4.8,1.45,7.22A13.21,13.21,0,0,1,27.38,36.9Z"/></g></g></svg>