<svg xmlns="http://www.w3.org/2000/svg" viewBox="0 0 36.24 36.24"><defs><style>.cls-1{fill:#fff;}</style></defs><g id="Layer_2" data-name="Layer 2"><g id="Graphic_Elements" data-name="Graphic Elements"><path class="cls-1" d="M16.66,36.24l.84-.06c.23-.33.59-.63.67-1,1.08-4.5,2.19-9,3.14-13.53,1.94-.11,3.86-.44,5.79-.7,3-.4,6.09-.84,9.14-1.27l-.06-.85a3.61,3.61,0,0,0-1-.67C30.62,17.08,26.05,16,21.45,15c-.33-2.1-.85-4.17-1.35-6.23C19.39,5.83,18.63,2.92,17.89,0a3.62,3.62,0,0,0-1.08,2.37c-.58,3.92-1.22,7.84-1.72,11.77l-.09.75c-2.1.34-4.17.86-6.24,1.36C5.83,17,2.92,17.72,0,18.46a3.62,3.62,0,0,0,2.37,1.08c3.92.58,7.84,1.21,11.77,1.72l.55.06c.11,1.93.44,3.86.7,5.78C15.79,30.15,16.23,33.19,16.66,36.24Z"/></g></g></svg>